# xmcd CD database file
#
# Track frame offsets:
#	150
#	11944
#	26091
#	39401
#	53114
#	66583
#	77566
#	90342
#	105255
#	117271
#	130973
#	142813
#	158069
#	168873
#	180626
#	195282
#
# Disc length: 2827 seconds
#
# Revision: 0
# Processed by: cddbd v1.5.1PL0 Copyright (c) Steve Scherf et al.
# Submitted via: cdripper 1,0,32,406
#
DISCID=c40b0910
DTITLE=Etta James - Enduring Soul
DYEAR=2004
DGENRE=Blues
TTITLE0=Anything To Say You're Mine
TTITLE1=I Just Want To Make Love To You
TTITLE2=All I Could Do Is Cry
TTITLE3=At Last
TTITLE4=If I Can't Have You
TTITLE5=Don't Cry Baby
TTITLE6=Something's Got A Hold On Me
TTITLE7=A Sunday Kind Of Love
TTITLE8=Would It Make Any Difference To You
TTITLE9=Two Sides (To Every Story)
TTITLE10=I Wish Someone Would Care
TTITLE11=Only Time Will Tell
TTITLE12=Tell Mama
TTITLE13=I'd Rather Go Blind
TTITLE14=The Soul Of A Man
TTITLE15=Let's Burn Down The Cornfield
EXTD=YEAR: 2004
EXTT0=
EXTT1=
EXTT2=
EXTT3=
EXTT4=
EXTT5=
EXTT6=
EXTT7=
EXTT8=
EXTT9=
EXTT10=
EXTT11=
EXTT12=
EXTT13=
EXTT14=
EXTT15=
PLAYORDER=
